grf
version=1
nRows=19
nColumns=37
inDegrees=no
endheader
time	ground_force_1_vx	ground_force_1_vy	ground_force_1_vz	ground_force_1_px	ground_force_1_py	ground_force_1_pz	ground_moment_1_mx	ground_moment_1_my	ground_moment_1_mz	ground_force_2_vx	ground_force_2_vy	ground_force_2_vz	ground_force_2_px	ground_force_2_py	ground_force_2_pz	ground_moment_2_mx	ground_moment_2_my	ground_moment_2_mz	ground_force_3_vx	ground_force_3_vy	ground_force_3_vz	ground_force_3_px	ground_force_3_py	ground_force_3_pz	ground_moment_3_mx	ground_moment_3_my	ground_moment_3_mz	ground_force_4_vx	ground_force_4_vy	ground_force_4_vz	ground_force_4_px	ground_force_4_py	ground_force_4_pz	ground_moment_4_mx	ground_moment_4_my	ground_moment_4_mz
      0.00000000	      0.00000000	     -0.00000000	      0.00000000	      0.00000000	      0.00000000	      0.00000000	      0.00000000	      0.00000000	      0.00000000	      3.96967769	     19.25216675	   -404.91854858	   -298.61322599	  -1010.14923543	      0.00000000	      0.00000000	     -0.00000000	   -238.03527079	     -6.93348967	    -20.35858857	   -318.83071899	   -270.53998394	   -790.02399428	      0.00000000	      0.00000000	     -0.00000000	  -1314.42010611	      0.00000000	     -0.00000000	      0.00000000	      0.00000000	      0.00000000	      0.00000000	      0.00000000	      0.00000000	      0.00000000
      0.01000000	      0.00000000	     -0.00000000	      0.00000000	      0.00000000	      0.00000000	      0.00000000	      0.00000000	      0.00000000	      0.00000000	      3.85092044	     19.25216675	   -404.62646484	   -298.36327511	  -1009.62600416	      0.00000000	      0.00000000	     -0.00000000	   -398.24697889	     -6.35794676	    -20.53504507	   -318.25070190	   -270.90422057	   -791.15660479	      0.00000000	      0.00000000	     -0.00000000	  -1450.52040979	      0.00000000	     -0.00000000	      0.00000000	      0.00000000	      0.00000000	      0.00000000	      0.00000000	      0.00000000	      0.00000000
      0.02000000	      0.00000000	     -0.00000000	      0.00000000	      0.00000000	      0.00000000	      0.00000000	      0.00000000	      0.00000000	      0.00000000	      4.11804295	     19.34129715	   -403.09548950	   -299.14900512	  -1008.12261307	      0.00000000	      0.00000000	     -0.00000000	   -427.16963201	     -6.41669885	    -20.90277425	   -317.32086182	   -271.25759805	   -791.90745406	      0.00000000	      0.00000000	     -0.00000000	  -1323.64187291	      0.00000000	     -0.00000000	      0.00000000	      0.00000000	      0.00000000	      0.00000000	      0.00000000	      0.00000000	      0.00000000
      0.03000000	      0.00000000	     -0.00000000	      0.00000000	      0.00000000	      0.00000000	      0.00000000	      0.00000000	      0.00000000	      0.00000000	      4.87630272	     19.40017891	   -402.97509766	   -299.11130835	  -1007.67873107	      0.00000000	      0.00000000	     -0.00000000	   -214.78556737	     -6.25396481	    -20.78493827	   -318.65945435	   -271.74468721	   -790.17800762	      0.00000000	      0.00000000	     -0.00000000	  -1393.54577127	      0.00000000	     -0.00000000	      0.00000000	      0.00000000	      0.00000000	      0.00000000	      0.00000000	      0.00000000	      0.00000000
      0.04000000	      0.00000000	     -0.00000000	      0.00000000	      0.00000000	      0.00000000	      0.00000000	      0.00000000	      0.00000000	      0.00000000	      5.14368105	     19.34011078	   -403.68469238	   -299.85341455	  -1008.45627996	      0.00000000	      0.00000000	     -0.00000000	   -244.15397614	     -6.44587032	    -20.87313405	   -317.14517212	   -271.82813310	   -791.81342449	      0.00000000	      0.00000000	     -0.00000000	  -1233.02432128	      0.00000000	     -0.00000000	      0.00000000	      0.00000000	      0.00000000	      0.00000000	      0.00000000	      0.00000000	      0.00000000
      0.05000000	      0.00000000	     -0.00000000	      0.00000000	      0.00000000	      0.00000000	      0.00000000	      0.00000000	      0.00000000	      0.00000000	      5.56024170	     19.63949013	   -403.21591187	   -299.59824566	  -1008.15503082	      0.00000000	      0.00000000	     -0.00000000	   -173.29516702	     -6.16484015	    -20.99037498	   -316.97219849	   -271.48773277	   -790.66737475	      0.00000000	     -0.00000000	     -0.00000000	  -1360.40232006	      0.00000000	     -0.00000000	      0.00000000	      0.00000000	      0.00000000	      0.00000000	      0.00000000	      0.00000000	      0.00000000
      0.06000000	      0.00000000	     -0.00000000	      0.00000000	      0.00000000	      0.00000000	      0.00000000	      0.00000000	      0.00000000	      0.00000000	      5.31952763	     19.37235260	   -403.50408936	   -300.23730722	  -1007.51777013	      0.00000000	      0.00000000	     -0.00000000	   -303.43075215	     -6.01780026	    -20.94820351	   -314.93475342	   -272.05120689	   -791.35436361	      0.00000000	      0.00000000	     -0.00000000	  -1364.84576406	      0.00000000	     -0.00000000	      0.00000000	      0.00000000	      0.00000000	      0.00000000	      0.00000000	      0.00000000	      0.00000000
      0.07000000	      0.00000000	     -0.00000000	      0.00000000	      0.00000000	      0.00000000	      0.00000000	      0.00000000	      0.00000000	      0.00000000	      5.23208380	     20.05673790	   -405.56512451	   -300.41297250	  -1009.69341689	      0.00000000	      0.00000000	     -0.00000000	   -330.37603980	     -5.58878127	    -20.81509923	   -314.45693970	   -272.23992249	   -791.18848452	      0.00000000	      0.00000000	     -0.00000000	  -1449.93717059	      0.00000000	     -0.00000000	      0.00000000	      0.00000000	      0.00000000	      0.00000000	      0.00000000	      0.00000000	      0.00000000
      0.08000000	      0.00000000	     -0.00000000	      0.00000000	      0.00000000	      0.00000000	      0.00000000	      0.00000000	      0.00000000	      0.00000000	      5.47062731	     19.28092766	   -405.46188354	   -300.52817376	  -1008.88249154	      0.00000000	      0.00000000	     -0.00000000	    -76.34039561	     -6.04905979	    -20.87026925	   -312.78317261	   -272.39026727	   -791.68600784	      0.00000000	      0.00000000	     -0.00000000	  -1302.19010306	      0.00000000	     -0.00000000	      0.00000000	      0.00000000	      0.00000000	      0.00000000	      0.00000000	      0.00000000	      0.00000000
      0.09000000	      0.00000000	     -0.00000000	      0.00000000	      0.00000000	      0.00000000	      0.00000000	      0.00000000	      0.00000000	      0.00000000	      5.68081331	     19.28079987	   -404.63073730	   -301.11129019	  -1008.93908714	      0.00000000	      0.00000000	      0.00000000	      5.56351010	     -6.15242000	    -21.28552574	   -313.31246948	   -272.36458855	   -790.09017618	      0.00000000	      0.00000000	     -0.00000000	  -1324.22895789	      0.00000000	     -0.00000000	      0.00000000	      0.00000000	      0.00000000	      0.00000000	      0.00000000	      0.00000000	      0.00000000
      0.10000000	      0.00000000	     -0.00000000	      0.00000000	      0.00000000	      0.00000000	      0.00000000	      0.00000000	      0.00000000	      0.00000000	      5.55956554	     19.54804611	   -408.70016479	   -301.58846118	  -1011.25582576	      0.00000000	      0.00000000	     -0.00000000	   -117.22476180	     -5.95788616	    -21.15460725	   -312.54684448	   -272.88161674	   -790.29879078	      0.00000000	      0.00000000	     -0.00000000	  -1447.54876139	      0.00000000	     -0.00000000	      0.00000000	      0.00000000	      0.00000000	      0.00000000	      0.00000000	      0.00000000	      0.00000000
      0.11000000	      0.00000000	     -0.00000000	      0.00000000	      0.00000000	      0.00000000	      0.00000000	      0.00000000	      0.00000000	      0.00000000	      5.00998354	     19.53777695	   -408.06723022	   -301.03553344	  -1008.30509058	      0.00000000	      0.00000000	     -0.00000000	   -287.19268006	     -5.80880348	    -20.97814700	   -311.84829712	   -273.10836420	   -790.63868703	      0.00000000	      0.00000000	     -0.00000000	  -1471.26485517	      0.00000000	     -0.00000000	      0.00000000	      0.00000000	      0.00000000	      0.00000000	      0.00000000	      0.00000000	      0.00000000
      0.12000000	      0.00000000	     -0.00000000	      0.00000000	      0.00000000	      0.00000000	      0.00000000	      0.00000000	      0.00000000	      0.00000000	      5.27755165	     19.20539284	   -407.49621582	   -302.06330655	  -1008.19593471	      0.00000000	      0.00000000	      0.00000000	    153.15568867	     -5.67749203	    -20.51878117	   -310.50711060	   -272.90226755	   -790.53673894	      0.00000000	      0.00000000	     -0.00000000	  -1345.20353278	      0.00000000	     -0.00000000	      0.00000000	      0.00000000	      0.00000000	      0.00000000	      0.00000000	      0.00000000	      0.00000000
      0.13000000	      0.00000000	     -0.00000000	      0.00000000	      0.00000000	      0.00000000	      0.00000000	      0.00000000	      0.00000000	      0.00000000	      4.33402014	     19.47742653	   -407.79223633	   -301.59639892	  -1008.13545393	      0.00000000	      0.00000000	     -0.00000000	   -204.25839455	     -5.50007046	    -20.56495237	   -308.46694946	   -273.44694208	   -792.04854937	      0.00000000	     -0.00000000	     -0.00000000	  -1497.43483559	      0.00000000	     -0.00000000	      0.00000000	      0.00000000	      0.00000000	      0.00000000	      0.00000000	      0.00000000	      0.00000000
      0.14000000	      0.00000000	     -0.00000000	      0.00000000	      0.00000000	      0.00000000	      0.00000000	      0.00000000	      0.00000000	      0.00000000	      3.52118897	     19.47236824	   -409.52252197	   -301.34729643	  -1009.34155482	      0.00000000	      0.00000000	     -0.00000000	   -278.07109535	     -5.74291835	    -20.15128276	   -309.07284546	   -273.38316604	   -790.37255724	      0.00000000	      0.00000000	     -0.00000000	  -1379.11407791	      0.00000000	     -0.00000000	      0.00000000	      0.00000000	      0.00000000	      0.00000000	      0.00000000	      0.00000000	      0.00000000
      0.15000000	      0.00000000	     -0.00000000	      0.00000000	      0.00000000	      0.00000000	      0.00000000	      0.00000000	      0.00000000	      0.00000000	      3.36213970	     20.23822784	   -408.96008301	   -301.58471223	  -1007.87639160	      0.00000000	      0.00000000	      0.00000000	     13.37070724	     -5.62174588	    -19.69573544	   -308.11627197	   -273.62711136	   -790.24004064	      0.00000000	     -0.00000000	     -0.00000000	  -1467.47390732	      0.00000000	     -0.00000000	      0.00000000	      0.00000000	      0.00000000	      0.00000000	      0.00000000	      0.00000000	      0.00000000
      0.16000000	      0.00000000	     -0.00000000	      0.00000000	      0.00000000	      0.00000000	      0.00000000	      0.00000000	      0.00000000	      0.00000000	      3.38999939	     19.91760635	   -410.74829102	   -301.82490349	  -1008.01363686	      0.00000000	      0.00000000	     -0.00000000	    -42.98793311	     -5.17295057	    -19.84477761	   -308.56274414	   -275.13360567	   -790.31685363	      0.00000000	      0.00000000	     -0.00000000	  -1511.01887116	      0.00000000	     -0.00000000	      0.00000000	      0.00000000	      0.00000000	      0.00000000	      0.00000000	      0.00000000	      0.00000000
      0.17000000	      0.00000000	     -0.00000000	      0.00000000	      0.00000000	      0.00000000	      0.00000000	      0.00000000	      0.00000000	      0.00000000	      3.31457973	     20.38330460	   -411.69860840	   -301.78482359	  -1008.80056484	      0.00000000	      0.00000000	     -0.00000000	   -151.83656493	     -4.67407639	    -19.91948659	   -307.06723022	   -274.69274757	   -792.74426435	      0.00000000	      0.00000000	     -0.00000000	  -1491.61207220	      0.00000000	     -0.00000000	      0.00000000	      0.00000000	      0.00000000	      0.00000000	      0.00000000	      0.00000000	      0.00000000
      0.18000000	      0.00000000	     -0.00000000	      0.00000000	      0.00000000	      0.00000000	      0.00000000	      0.00000000	      0.00000000	      0.00000000	      3.60957432	     20.23941040	   -411.67187500	   -302.33665138	  -1008.14365962	      0.00000000	      0.00000000	      0.00000000	   -139.20400243	     -4.42181523	    -19.96070060	   -308.72909546	   -276.24470803	   -790.18836922	      0.00000000	     -0.00000000	     -0.00000000	  -1491.30539931	      0.00000000	     -0.00000000	      0.00000000	      0.00000000	      0.00000000	      0.00000000	      0.00000000	      0.00000000	      0.00000000
